<svg width="390" height="844" viewBox="0 0 390 844" fill="none" xmlns="http://www.w3.org/2000/svg">
<rect width="390" height="844" fill="#0e96f8"/>
<path fill-rule="evenodd" clip-rule="evenodd" d="M190.437 330L233.654 372.689H227.177V514.355H234.212V401.841L242.497 397.537H266.519V514.355H270.688V421.515L277.936 418.19H303.256V514.355H334V515H302.735V418.835H278.03L271.209 421.964V515H265.998V398.183H242.81V514.677H242.289V398.345L234.733 402.27V515H226.656V372.044H232.165L190.444 330.832L150.258 372.044H158.394V387.667V402.27L157.873 514.355L137.55 515V433.034H141.979V424.703L98.9897 433.63V477.192L56.5211 486.55V514.677H56V486.009L98.4686 476.651V433.084L142.5 423.94V433.68H138.071V514.355H157.873L158.394 402.27L157.873 387.4V372.689H148.812L190.437 330Z" fill="white"/>
<path d="M158.394 402.27V387.667V372.044H150.258L190.444 330.832L232.165 372.044H226.656V515H234.733V402.27L242.289 398.345V514.677H242.81V398.183H265.998V515H271.209V421.964L278.03 418.835H302.735V515H334V514.355H303.256V418.19H277.936L270.688 421.515V514.355H266.519V397.537H242.497L234.212 401.841V514.355H227.177V372.689H233.654L190.437 330L148.812 372.689H157.873V387.4L158.394 402.27ZM158.394 402.27L157.873 514.355M157.873 514.355H138.071V433.68H142.5V423.94L98.4686 433.084V476.651L56 486.009V514.677H56.5211V486.55L98.9897 477.192V433.63L141.979 424.703V433.034H137.55V515L157.873 514.355Z" stroke="#FAFAFA" stroke-width="4"/>
</svg>
